<svg xmlns="http://www.w3.org/2000/svg" width="204" height="209" fill="none" xmlns:v="https://vecta.io/nano"><g filter="url(#A)"><ellipse cx="102" cy="101.5" rx="99" ry="101.5" fill="#2a45c2"/></g><ellipse cx="102" cy="97" rx="99" ry="97" fill="#4664f4"/><ellipse cx="102" cy="97" rx="99" ry="97" fill="url(#B)"/><circle cx="102" cy="99" r="76" fill="#babfd4"/><ellipse cx="102" cy="103" rx="76" ry="72" fill="url(#C)"/><path d="M131.529 79.323c-.56-.215-1.143-.308-1.682-.27-.777.054-1.405.372-1.777.891-2.192 3.084-3.987 8.907-5.434 13.586-.664 2.164-1.556 5.06-2.202 6.434-.673-3.85.088-17.955.383-23.387l.004-.088.188-4.726c-.325-2.07-1.151-3.429-2.456-4.037-1.319-.617-3.032-.344-4.878.771-.925.562-1.181 2.491-1.975 11.235l-.003.039c-.437 4.804-1.443 15.864-2.682 17.706-1.398-2.577-3.32-17.219-4.15-23.557-.581-4.439-.919-6.987-1.146-7.757-.479-1.613-2.5-2.985-4.501-3.061-1.665-.083-3.032.768-3.684 2.247-1.22 1.364-.789 5.887.56 16.6.642 5.098 1.967 15.63 1.133 16.811-1.663-.182-4.518-6.778-8.486-19.612-1.113-3.594-1.458-4.675-1.8-5.148-.674-1.648-2.965-2.919-5.019-2.776-.175.012-.346.035-.514.067-1.075.215-3.529 1.209-3.006 5.796 1.449 6.36 3.022 11.03 4.55 15.563l.031.091c.914 2.715 1.778 5.28 2.58 8.127 1.892 6.721 1.156 10.891 1.147 10.938-.063.429-.195.691-.393.783-.071.034-.163.054-.266.061-.6.042-1.499-.357-1.962-.617-1.059-2.032-6.33-11.719-11.107-13.063l-.172-.051-.174.016c-1.752.166-3.04.831-3.827 1.977-1.248 1.811-.731 4.118-.606 4.58l.07.166c.039.07 3.87 7.085 4.463 10.348.511 2.797 3.156 5.829 5.283 8.265l.088.099c.694.797 1.292 1.486 1.764 2.124 6.17 6.464 15.929 11.902 16.008 11.946 1.218.902 1.895 1.774 1.966 2.525.045.491-.209.785-.218.795l-.213.222 1.349 1.317 25.745-1.816 1.098-5.052c3.394-14.269 2.685-26.434 2.674-26.516.012-.447.964-4.776 1.729-8.273l.022-.089c1.525-6.967 3.422-15.636 3.785-18.933.159-1.41-.739-2.705-2.287-3.294z" fill="#3b4262"/><defs><filter id="A" x="0" y="0" width="204" height="209" filterUnits="userSpaceOnUse" color-interpolation-filters="sRGB"><feFlood flood-opacity="0" result="A"/><feColorMatrix in="SourceAlpha" values="0 0 0 0 0 0 0 0 0 0 0 0 0 0 0 0 0 0 127 0"/><feOffset dy="3"/><feGaussianBlur stdDeviation="1.5"/><feColorMatrix values="0 0 0 0 0 0 0 0 0 0 0 0 0 0 0 0 0 0 0.196706 0"/><feBlend in2="A"/><feBlend in="SourceGraphic"/></filter><linearGradient id="B" x1="3" y1="0" x2="3" y2="194" gradientUnits="userSpaceOnUse"><stop stop-color="#fff" stop-opacity=".097"/><stop offset="1" stop-color="#fff" stop-opacity=".01"/></linearGradient><linearGradient id="C" x1="176.74" y1="175" x2="176.74" y2="33.387" gradientUnits="userSpaceOnUse"><stop stop-color="#f3f3f3"/><stop offset="1" stop-color="#dadada"/></linearGradient></defs></svg>