<svg xmlns="http://www.w3.org/2000/svg" width="204" height="209" fill="none" xmlns:v="https://vecta.io/nano"><g filter="url(#A)"><ellipse cx="102" cy="101.5" rx="99" ry="101.5" fill="#9d1634"/></g><ellipse cx="102" cy="97" rx="99" ry="97" fill="#db2e4d"/><ellipse cx="102" cy="97" rx="99" ry="97" fill="url(#B)"/><circle cx="102" cy="99" r="76" fill="#babfd4"/><ellipse cx="102" cy="103" rx="76" ry="72" fill="url(#C)"/><path d="M131.441 88.085c-.877-11.104-13.292-9.97-13.292-9.97-5.24-9.279-13.426-2.558-13.426-2.558-6.29-9.094-14.175-.667-14.175-.667-13.596-1.473-13.069 9.692-13.069 9.692-.32 3.549 1.916 14.53 1.916 14.53-2.017-6.329-6.392-1.075-6.392-1.075-5.378 8.337-1.33 12.9-1.33 12.9 7.278 8.567 22.787 18.85 22.787 18.85 5.616 3.231 3.24 6.113 3.24 6.113l33.968-5.638.781-6.47c5.164-15.687-1.009-35.707-1.009-35.707z" fill="#3b4262"/><defs><filter id="A" x="0" y="0" width="204" height="209" filterUnits="userSpaceOnUse" color-interpolation-filters="sRGB"><feFlood flood-opacity="0" result="A"/><feColorMatrix in="SourceAlpha" values="0 0 0 0 0 0 0 0 0 0 0 0 0 0 0 0 0 0 127 0"/><feOffset dy="3"/><feGaussianBlur stdDeviation="1.5"/><feColorMatrix values="0 0 0 0 0 0 0 0 0 0 0 0 0 0 0 0 0 0 0.196706 0"/><feBlend in2="A"/><feBlend in="SourceGraphic"/></filter><linearGradient id="B" x1="3" y1="0" x2="3" y2="194" gradientUnits="userSpaceOnUse"><stop stop-color="#fff" stop-opacity=".097"/><stop offset="1" stop-color="#fff" stop-opacity=".01"/></linearGradient><linearGradient id="C" x1="176.74" y1="175" x2="176.74" y2="33.387" gradientUnits="userSpaceOnUse"><stop stop-color="#f3f3f3"/><stop offset="1" stop-color="#dadada"/></linearGradient></defs></svg>