<svg xmlns="http://www.w3.org/2000/svg" width="305" height="271" fill="none" xmlns:v="https://vecta.io/nano"><ellipse cx="53.189" cy="54.815" rx="53.189" ry="54.815" fill="#b1b4c5"/><ellipse cx="53.189" cy="52.385" rx="53.189" ry="52.385" fill="url(#A)"/><ellipse cx="53.189" cy="53.465" rx="40.832" ry="41.044" fill="#e1e4ed"/><path d="M69.054 42.838c-.301-.116-.614-.166-.903-.146-.418.029-.755.201-.955.481-1.177 1.665-2.142 4.81-2.919 7.337l-1.183 3.475c-.362-2.079.047-9.696.205-12.63l.003-.047.101-2.552c-.175-1.118-.618-1.852-1.319-2.18-.709-.333-1.629-.186-2.62.417-.497.303-.635 1.345-1.061 6.067l-.002.021c-.235 2.594-.776 8.567-1.441 9.562-.751-1.392-1.784-9.299-2.23-12.722-.312-2.397-.494-3.773-.616-4.189-.257-.871-1.343-1.612-2.418-1.653-.895-.045-1.629.415-1.979 1.213-.656.737-.424 3.179.301 8.965.345 2.753 1.057 8.441.609 9.079-.893-.098-2.427-3.661-4.559-10.592-.598-1.941-.783-2.525-.967-2.781-.362-.89-1.593-1.577-2.697-1.499-.094.007-.186.019-.276.036-.578.116-1.896.653-1.615 3.13.778 3.435 1.624 5.957 2.444 8.404l.017.049c.491 1.466.955 2.852 1.386 4.389 1.017 3.63.621 5.882.617 5.907-.034.232-.105.373-.211.423-.038.018-.088.029-.143.033-.322.023-.805-.193-1.054-.333-.569-1.098-3.401-6.329-5.967-7.055l-.092-.028-.093.009c-.941.09-1.633.449-2.056 1.067-.67.978-.393 2.224-.325 2.474l.038.09c.021.038 2.079 3.826 2.398 5.588.275 1.511 1.696 3.148 2.838 4.464l.047.053c.373.431.694.803.948 1.147 3.315 3.491 8.558 6.428 8.601 6.451.654.487 1.018.958 1.056 1.364.024.265-.112.424-.117.429l-.114.12.725.711 13.832-.981.59-2.728c1.823-7.706 1.443-14.276 1.437-14.32.007-.242.518-2.579.929-4.468l.012-.048c.819-3.763 1.838-8.444 2.034-10.225.085-.761-.397-1.461-1.229-1.779z" fill="#8a90ac"/><ellipse cx="249.686" cy="54.815" rx="53.686" ry="54.815" fill="#b1b4c5"/><ellipse cx="249.686" cy="52.385" rx="53.686" ry="52.385" fill="url(#B)"/><ellipse cx="249.686" cy="53.465" rx="41.214" ry="41.044" fill="#e1e4ed"/><path d="M238.927 53.114l4.452-6.234c-1.85-.307-5.248-.375-8.032 2.397-4.387 4.369-6.164 13.808-6.535 16.093l11.151 11.105c2.008-.171 10.895-1.353 19.459-9.882.091-.184 2.177-1.719.472-3.418-.814-.811-2.162-.796-2.994.033a1.05 1.05 0 0 1-1.496.015 1.04 1.04 0 0 1 .015-1.49l3.026-3.014c1.538-1.532.088-4.115-2.058-3.495l-2.478 2.112c-.452.393-1.125.325-1.497-.103-.384-.443-.302-1.114.136-1.492 8.654-7.562 7.391-6.651 12.958-11.848 2.08-1.725-.537-4.776-2.586-3.029l-13.469 12.062c-.392.332-.993.339-1.378-.015-.445-.383-.456-.934-.165-1.37l9.395-14.545c1.373-1.852-1.329-3.909-2.776-2.042l-13.891 19.348c-.335.482-1.01.593-1.47.256a1.02 1.02 0 0 1-.239-1.444z" fill="#8a90ac"/><ellipse cx="151.686" cy="214.815" rx="53.686" ry="54.815" fill="#b1b4c5"/><ellipse cx="151.686" cy="212.385" rx="53.686" ry="52.385" fill="url(#C)"/><ellipse cx="151.686" cy="213.465" rx="41.214" ry="41.044" fill="#e1e4ed"/><path d="M167.652 207.57c-.476-5.996-7.208-5.384-7.208-5.384-2.842-5.011-7.282-1.381-7.282-1.381-3.41-4.911-7.686-.36-7.686-.36-7.373-.796-7.087 5.234-7.087 5.234-.174 1.917 1.039 7.847 1.039 7.847-1.094-3.418-3.466-.581-3.466-.581-2.917 4.502-.721 6.967-.721 6.967 3.946 4.627 12.357 10.18 12.357 10.18 3.045 1.745 1.757 3.301 1.757 3.301l18.42-3.045.424-3.494c2.8-8.472-.547-19.284-.547-19.284z" fill="#8a90ac"/><g fill="#b1b4c5"><path d="M140.617 27.478c0 .823-.269 1.452-.806 1.885-.529.425-1.213.637-2.054.637h-2.912c-.043 0-.082-.013-.117-.039a.19.19 0 0 1-.039-.117v-8.788c0-.043.013-.078.039-.104.035-.035.074-.052.117-.052h2.717c.927 0 1.647.208 2.158.624.511.407.767 1.031.767 1.872 0 .858-.334 1.478-1.001 1.859-.043.026-.048.052-.013.078.763.433 1.144 1.148 1.144 2.145zm-4.03-5.005c-.043 0-.065.022-.065.065v2.041c0 .043.022.065.065.065h.988c.347 0 .62-.095.819-.286s.299-.455.299-.793c0-.347-.1-.615-.299-.806-.191-.191-.464-.286-.819-.286h-.988zm1.092 5.941c.347 0 .615-.1.806-.299.199-.208.299-.498.299-.871s-.1-.663-.299-.871c-.191-.217-.459-.325-.806-.325h-1.092c-.043 0-.065.022-.065.065v2.236c0 .043.022.065.065.065h1.092zm9.619-6.097a.16.16 0 0 1-.052.117c-.026.026-.06.039-.104.039h-3.484c-.043 0-.065.022-.065.065v2.028c0 .043.022.065.065.065h2.171c.044 0 .078.017.104.052.035.026.052.061.052.104v1.261a.16.16 0 0 1-.052.117c-.026.026-.06.039-.104.039h-2.171c-.043 0-.065.022-.065.065v2.093c0 .043.022.065.065.065h3.484c.044 0 .078.017.104.052.035.026.052.061.052.104v1.261a.16.16 0 0 1-.052.117c-.026.026-.06.039-.104.039h-5.226c-.043 0-.082-.013-.117-.039a.19.19 0 0 1-.039-.117v-8.788c0-.043.013-.078.039-.104.035-.035.074-.052.117-.052h5.226c.044 0 .078.017.104.052.035.026.052.061.052.104v1.261zM153.312 30a.17.17 0 0 1-.182-.13l-.299-1.274c-.009-.035-.031-.052-.065-.052h-2.431a.06.06 0 0 0-.065.052l-.299 1.274c-.026.087-.083.13-.169.13h-1.573c-.113 0-.156-.056-.13-.169l2.34-8.801a.17.17 0 0 1 .182-.13h1.885a.17.17 0 0 1 .182.13l2.34 8.801.013.052c0 .078-.048.117-.143.117h-1.586zm-2.691-2.951c-.009.026-.005.048.013.065.017.009.034.013.052.013h1.716c.017 0 .034-.004.052-.013.017-.017.021-.039.013-.065l-.897-3.77c-.009-.035-.022-.052-.039-.052s-.031.017-.039.052l-.871 3.77zm10.086-6.149c.044 0 .078.017.104.052.035.026.052.061.052.104v1.274a.16.16 0 0 1-.052.117c-.026.026-.06.039-.104.039h-1.976c-.043 0-.065.022-.065.065v7.293a.16.16 0 0 1-.052.117c-.026.026-.06.039-.104.039h-1.521c-.043 0-.082-.013-.117-.039a.19.19 0 0 1-.039-.117v-7.293c0-.043-.021-.065-.065-.065h-1.911c-.043 0-.082-.013-.117-.039a.19.19 0 0 1-.039-.117v-1.274c0-.043.013-.078.039-.104.035-.035.074-.052.117-.052h5.85zm3.88 9.204c-.598 0-1.122-.104-1.573-.312-.451-.217-.802-.516-1.053-.897-.243-.39-.364-.836-.364-1.339v-.338c0-.043.013-.078.039-.104.035-.035.074-.052.117-.052h1.495c.043 0 .078.017.104.052.035.026.052.061.052.104v.247c0 .303.113.559.338.767.225.199.529.299.91.299.338 0 .594-.087.767-.26.182-.173.273-.394.273-.663 0-.199-.056-.368-.169-.507a1.63 1.63 0 0 0-.481-.403c-.199-.13-.511-.303-.936-.52-.52-.26-.945-.503-1.274-.728s-.611-.516-.845-.871-.351-.784-.351-1.287.117-.94.351-1.313c.243-.381.581-.672 1.014-.871.433-.208.927-.312 1.482-.312.581 0 1.096.113 1.547.338.451.217.802.524 1.053.923s.377.858.377 1.378v.26a.16.16 0 0 1-.052.117c-.026.026-.061.039-.104.039h-1.495c-.043 0-.082-.013-.117-.039a.19.19 0 0 1-.039-.117v-.234c0-.312-.108-.572-.325-.78s-.511-.312-.884-.312c-.312 0-.559.082-.741.247-.173.156-.26.377-.26.663 0 .199.052.373.156.52s.264.29.481.429c.217.13.546.303.988.52l.273.156c.503.277.893.52 1.17.728a2.53 2.53 0 0 1 .715.767c.191.312.286.689.286 1.131 0 .789-.269 1.417-.806 1.885-.529.459-1.235.689-2.119.689zM46.617 143.478c0 .823-.269 1.452-.806 1.885-.529.425-1.213.637-2.054.637h-2.912a.19.19 0 0 1-.117-.039c-.026-.035-.039-.074-.039-.117v-8.788c0-.043.013-.078.039-.104a.16.16 0 0 1 .117-.052h2.717c.927 0 1.647.208 2.158.624.511.407.767 1.031.767 1.872 0 .858-.334 1.478-1.001 1.859-.043.026-.048.052-.013.078.763.433 1.144 1.148 1.144 2.145zm-4.03-5.005c-.043 0-.065.022-.065.065v2.041c0 .043.022.065.065.065h.988c.347 0 .62-.095.819-.286s.299-.455.299-.793c0-.347-.1-.615-.299-.806-.191-.191-.464-.286-.819-.286h-.988zm1.092 5.941c.347 0 .615-.1.806-.299.199-.208.299-.498.299-.871s-.1-.663-.299-.871c-.191-.217-.459-.325-.806-.325h-1.092c-.043 0-.065.022-.065.065v2.236c0 .043.022.065.065.065h1.092zm9.619-6.097c0 .043-.017.082-.052.117-.026.026-.061.039-.104.039h-3.484c-.043 0-.065.022-.065.065v2.028c0 .043.022.065.065.065h2.171c.043 0 .078.017.104.052.035.026.052.061.052.104v1.261c0 .043-.017.082-.052.117-.026.026-.061.039-.104.039h-2.171c-.043 0-.065.022-.065.065v2.093c0 .043.022.065.065.065h3.484c.043 0 .078.017.104.052.035.026.052.061.052.104v1.261c0 .043-.017.082-.052.117-.026.026-.061.039-.104.039h-5.226a.19.19 0 0 1-.117-.039c-.026-.035-.039-.074-.039-.117v-8.788c0-.043.013-.078.039-.104a.16.16 0 0 1 .117-.052h5.226c.043 0 .078.017.104.052.035.026.052.061.052.104v1.261zM59.312 146a.17.17 0 0 1-.182-.13l-.299-1.274c-.009-.035-.03-.052-.065-.052h-2.431c-.035 0-.056.017-.065.052l-.299 1.274c-.026.087-.082.13-.169.13h-1.573c-.113 0-.156-.056-.13-.169l2.34-8.801a.17.17 0 0 1 .182-.13h1.885a.17.17 0 0 1 .182.13l2.34 8.801.013.052c0 .078-.048.117-.143.117h-1.586zm-2.691-2.951c-.009.026-.004.048.013.065.017.009.035.013.052.013h1.716c.017 0 .035-.004.052-.013.017-.017.022-.039.013-.065l-.897-3.77c-.009-.035-.022-.052-.039-.052s-.03.017-.039.052l-.871 3.77zm10.087-6.149c.043 0 .078.017.104.052.035.026.052.061.052.104v1.274c0 .043-.017.082-.052.117-.026.026-.061.039-.104.039h-1.976c-.043 0-.065.022-.065.065v7.293c0 .043-.017.082-.052.117-.026.026-.061.039-.104.039H62.99a.19.19 0 0 1-.117-.039c-.026-.035-.039-.074-.039-.117v-7.293c0-.043-.022-.065-.065-.065h-1.911a.19.19 0 0 1-.117-.039c-.026-.035-.039-.074-.039-.117v-1.274c0-.043.013-.078.039-.104a.16.16 0 0 1 .117-.052h5.85zm3.88 9.204c-.598 0-1.122-.104-1.573-.312-.451-.217-.802-.516-1.053-.897a2.48 2.48 0 0 1-.364-1.339v-.338c0-.043.013-.078.039-.104a.16.16 0 0 1 .117-.052h1.495c.043 0 .078.017.104.052.035.026.052.061.052.104v.247c0 .303.113.559.338.767.225.199.529.299.91.299.338 0 .594-.087.767-.26.182-.173.273-.394.273-.663a.78.78 0 0 0-.169-.507 1.63 1.63 0 0 0-.481-.403c-.199-.13-.511-.303-.936-.52-.52-.26-.945-.503-1.274-.728s-.611-.516-.845-.871-.351-.784-.351-1.287.117-.94.351-1.313c.243-.381.581-.672 1.014-.871.433-.208.927-.312 1.482-.312.581 0 1.096.113 1.547.338.451.217.802.524 1.053.923s.377.858.377 1.378v.26c0 .043-.017.082-.052.117-.026.026-.061.039-.104.039H71.81a.19.19 0 0 1-.117-.039c-.026-.035-.039-.074-.039-.117v-.234c0-.312-.108-.572-.325-.78s-.511-.312-.884-.312c-.312 0-.559.082-.741.247-.173.156-.26.377-.26.663 0 .199.052.373.156.52s.264.29.481.429c.217.13.546.303.988.52l.273.156c.503.277.893.52 1.17.728.286.199.524.455.715.767s.286.689.286 1.131c0 .789-.269 1.417-.806 1.885-.529.459-1.235.689-2.119.689zm171.029-2.626c0 .823-.269 1.452-.806 1.885-.529.425-1.213.637-2.054.637h-2.912c-.043 0-.082-.013-.117-.039-.026-.035-.039-.074-.039-.117v-8.788c0-.043.013-.078.039-.104.035-.035.074-.052.117-.052h2.717c.927 0 1.647.208 2.158.624.511.407.767 1.031.767 1.872 0 .858-.334 1.478-1.001 1.859-.043.026-.048.052-.013.078.763.433 1.144 1.148 1.144 2.145zm-4.03-5.005c-.043 0-.065.022-.065.065v2.041c0 .043.022.065.065.065h.988c.347 0 .62-.095.819-.286s.299-.455.299-.793c0-.347-.1-.615-.299-.806-.191-.191-.464-.286-.819-.286h-.988zm1.092 5.941c.347 0 .615-.1.806-.299.199-.208.299-.498.299-.871s-.1-.663-.299-.871c-.191-.217-.459-.325-.806-.325h-1.092c-.043 0-.065.022-.065.065v2.236c0 .043.022.065.065.065h1.092zm9.619-6.097c0 .043-.017.082-.052.117-.026.026-.06.039-.104.039h-3.484c-.043 0-.065.022-.065.065v2.028c0 .043.022.065.065.065h2.171c.044 0 .078.017.104.052.035.026.052.061.052.104v1.261c0 .043-.017.082-.052.117-.026.026-.06.039-.104.039h-2.171c-.043 0-.065.022-.065.065v2.093c0 .043.022.065.065.065h3.484c.044 0 .078.017.104.052.035.026.052.061.052.104v1.261c0 .043-.017.082-.052.117-.026.026-.06.039-.104.039h-5.226c-.043 0-.082-.013-.117-.039-.026-.035-.039-.074-.039-.117v-8.788c0-.043.013-.078.039-.104.035-.035.074-.052.117-.052h5.226c.044 0 .078.017.104.052.035.026.052.061.052.104v1.261zm6.014 7.683c-.096 0-.156-.043-.182-.13l-.299-1.274c-.009-.035-.031-.052-.065-.052h-2.431a.06.06 0 0 0-.065.052l-.299 1.274c-.026.087-.083.13-.169.13h-1.573c-.113 0-.156-.056-.13-.169l2.34-8.801c.026-.087.086-.13.182-.13h1.885a.17.17 0 0 1 .182.13l2.34 8.801.013.052c0 .078-.048.117-.143.117h-1.586zm-2.691-2.951c-.009.026-.005.048.013.065.017.009.034.013.052.013h1.716c.017 0 .034-.004.052-.013.017-.017.021-.039.013-.065l-.897-3.77c-.009-.035-.022-.052-.039-.052s-.031.017-.039.052l-.871 3.77zm10.086-6.149c.044 0 .078.017.104.052.035.026.052.061.052.104v1.274c0 .043-.017.082-.052.117-.026.026-.06.039-.104.039h-1.976c-.043 0-.065.022-.065.065v7.293c0 .043-.017.082-.052.117-.026.026-.06.039-.104.039h-1.521c-.043 0-.082-.013-.117-.039-.026-.035-.039-.074-.039-.117v-7.293c0-.043-.021-.065-.065-.065h-1.911c-.043 0-.082-.013-.117-.039-.026-.035-.039-.074-.039-.117v-1.274c0-.043.013-.078.039-.104.035-.035.074-.052.117-.052h5.85zm3.88 9.204c-.598 0-1.122-.104-1.573-.312-.451-.217-.802-.516-1.053-.897-.243-.39-.364-.836-.364-1.339v-.338c0-.043.013-.078.039-.104.035-.035.074-.052.117-.052h1.495c.043 0 .078.017.104.052.035.026.052.061.052.104v.247c0 .303.113.559.338.767.225.199.529.299.91.299.338 0 .594-.087.767-.26.182-.173.273-.394.273-.663 0-.199-.056-.368-.169-.507a1.63 1.63 0 0 0-.481-.403c-.199-.13-.511-.303-.936-.52-.52-.26-.945-.503-1.274-.728s-.611-.516-.845-.871-.351-.784-.351-1.287.117-.94.351-1.313c.243-.381.581-.672 1.014-.871.433-.208.927-.312 1.482-.312.581 0 1.096.113 1.547.338.451.217.802.524 1.053.923s.377.858.377 1.378v.26c0 .043-.017.082-.052.117-.026.026-.061.039-.104.039h-1.495c-.043 0-.082-.013-.117-.039-.026-.035-.039-.074-.039-.117v-.234c0-.312-.108-.572-.325-.78s-.511-.312-.884-.312c-.312 0-.559.082-.741.247-.173.156-.26.377-.26.663 0 .199.052.373.156.52s.264.29.481.429c.217.13.546.303.988.52l.273.156c.503.277.893.52 1.17.728.286.199.524.455.715.767s.286.689.286 1.131c0 .789-.269 1.417-.806 1.885-.529.459-1.235.689-2.119.689z"/><rect width="50" height="4" rx="2" transform="matrix(-1 0 0 1 177 49)"/><g fill-rule="evenodd"><path d="M137.645 41.009c-.724-.722-1.898-.716-2.616.013l-8.59 8.728c-.711.723-.705 1.885.013 2.6.725.722 1.899.716 2.616-.013l8.59-8.728c.711-.723.706-1.884-.013-2.6z"/><path d="M137.645 60.991c.719-.716.724-1.877.013-2.6l-8.59-8.728c-.718-.729-1.891-.735-2.616-.013-.718.716-.724 1.877-.013 2.6l8.59 8.728c.718.729 1.891.735 2.616.013z"/></g><rect width="50" height="4" rx="2" transform="matrix(.5736 .819152 .819152 -.5736 80.4487 117.849)"/><g fill-rule="evenodd"><path d="M96.476 154.67c-.176 1.008.502 1.966 1.511 2.135l12.077 2.031c1 .168 1.948-.503 2.122-1.502.176-1.008-.502-1.966-1.511-2.136l-12.076-2.03c-1-.168-1.948.503-2.123 1.502z"/><path d="M112.844 143.209c-.998-.178-1.953.484-2.137 1.481l-2.223 12.043c-.186 1.006.483 1.97 1.49 2.15.998.178 1.953-.483 2.137-1.481l2.223-12.043c.185-1.005-.483-1.97-1.49-2.15z"/></g><rect x="195.449" y="158.151" width="50" height="4" rx="2" transform="rotate(305 195.449 158.151)"/><g fill-rule="evenodd"><path d="M211.476 121.33c-.176-1.008.502-1.966 1.511-2.135l12.077-2.031c1-.168 1.948.503 2.122 1.502.176 1.008-.502 1.966-1.511 2.136l-12.076 2.03c-1.001.168-1.949-.503-2.123-1.502z"/><path d="M227.844 132.791c-.998.178-1.953-.484-2.137-1.481l-2.223-12.043c-.186-1.006.483-1.97 1.49-2.15.998-.178 1.953.483 2.137 1.481l2.223 12.043c.185 1.005-.483 1.97-1.49 2.15z"/></g></g><defs><linearGradient id="A" x1="0" y1="0" x2="0" y2="104.77" gradientUnits="userSpaceOnUse"><stop stop-color="#fff" stop-opacity=".097"/><stop offset="1" stop-color="#fff" stop-opacity=".01"/></linearGradient><linearGradient id="B" x1="196" y1="0" x2="196" y2="104.77" gradientUnits="userSpaceOnUse"><stop stop-color="#fff" stop-opacity=".097"/><stop offset="1" stop-color="#fff" stop-opacity=".01"/></linearGradient><linearGradient id="C" x1="98" y1="160" x2="98" y2="264.77" gradientUnits="userSpaceOnUse"><stop stop-color="#fff" stop-opacity=".097"/><stop offset="1" stop-color="#fff" stop-opacity=".01"/></linearGradient></defs></svg>