<svg xmlns="http://www.w3.org/2000/svg" width="204" height="209" fill="none" xmlns:v="https://vecta.io/nano"><g filter="url(#A)"><ellipse cx="102" cy="101.5" rx="99" ry="101.5" fill="#c76c1b"/></g><ellipse cx="102" cy="97" rx="99" ry="97" fill="#eb9f0e"/><ellipse cx="102" cy="97" rx="99" ry="97" fill="url(#B)"/><circle cx="102" cy="99" r="76" fill="#babfd4"/><ellipse cx="102" cy="103" rx="76" ry="72" fill="url(#C)"/><path d="M82.16 98.349l8.209-11.543c-3.412-.569-9.678-.695-14.811 4.438-8.091 8.091-11.367 25.569-12.05 29.8l20.563 20.562c3.702-.317 20.091-2.505 35.883-18.297.167-.341 4.014-3.184.869-6.329-1.501-1.501-3.986-1.473-5.52.061-.781.781-1.995.792-2.76.028s-.753-1.979.028-2.76l5.58-5.581c2.836-2.836.163-7.62-3.795-6.47l-4.568 3.911a1.96 1.96 0 0 1-2.761-.192c-.708-.82-.557-2.062.25-2.762 15.958-14.002 13.629-12.315 23.896-21.939 3.836-3.194-.99-8.844-4.77-5.609l-24.837 22.335c-.723.615-1.83.627-2.541-.028-.821-.709-.839-1.73-.303-2.536l17.324-26.933c2.533-3.43-2.451-7.238-5.119-3.781L85.312 100.55c-.618.893-1.863 1.098-2.711.473-.851-.571-1.084-1.811-.441-2.674z" fill="#3b4262"/><defs><filter id="A" x="0" y="0" width="204" height="209" filterUnits="userSpaceOnUse" color-interpolation-filters="sRGB"><feFlood flood-opacity="0" result="A"/><feColorMatrix in="SourceAlpha" values="0 0 0 0 0 0 0 0 0 0 0 0 0 0 0 0 0 0 127 0"/><feOffset dy="3"/><feGaussianBlur stdDeviation="1.5"/><feColorMatrix values="0 0 0 0 0 0 0 0 0 0 0 0 0 0 0 0 0 0 0.196706 0"/><feBlend in2="A"/><feBlend in="SourceGraphic"/></filter><linearGradient id="B" x1="3" y1="0" x2="3" y2="194" gradientUnits="userSpaceOnUse"><stop stop-color="#fff" stop-opacity=".097"/><stop offset="1" stop-color="#fff" stop-opacity=".01"/></linearGradient><linearGradient id="C" x1="176.74" y1="175" x2="176.74" y2="33.387" gradientUnits="userSpaceOnUse"><stop stop-color="#f3f3f3"/><stop offset="1" stop-color="#dadada"/></linearGradient></defs></svg>